<svg id="Layer_1" data-name="Layer 1" xmlns="http://www.w3.org/2000/svg" viewBox="0 0 41 68"><defs><style>.cls-1{fill:#ed1c24;}.cls-2{fill:#8c6239;}</style></defs><path class="cls-1" d="M31.91,27.47a5.78,5.78,0,0,1,.65,2.69,5.87,5.87,0,1,1-11.73,0c0-5,5-5.77,6.41-8.4,1.1-2,2.64-6.82-2.81-13.76,5.16,6.57-.16,13.29-5,14.11a13,13,0,1,0,12.47,5.36Z"/><path class="cls-2" d="M32.32,47.16a.88.88,0,0,0,.24-.61.86.86,0,0,0-.86-.86.84.84,0,0,0-.52.18h0a14.66,14.66,0,0,1-9.74,3.79h-.12a14.7,14.7,0,0,1-1.74-29.3h0a.86.86,0,0,0-.08-1.71h-.11a16.62,16.62,0,0,0-3.48.79l-.31-.73a1.1,1.1,0,0,0-2,.86l.31.73a16.55,16.55,0,0,0-4.28,3.13A16.43,16.43,0,0,0,20.22,51.36V53.5H14.35a1.1,1.1,0,0,0,0,2.19H28.27a1.1,1.1,0,1,0,0-2.19H22.4V51.36a15.79,15.79,0,0,0,4.31-.87l.31.73a1.09,1.09,0,0,0,1.44.58A1.11,1.11,0,0,0,29,50.36l-.31-.72a16.52,16.52,0,0,0,3.59-2.48Z"/></svg>