<svg id="Layer_1" data-name="Layer 1" xmlns="http://www.w3.org/2000/svg" viewBox="0 0 1920 542"><defs><style>.cls-1{fill:#333;}.cls-2{fill:#1a1a1a;}.cls-3{fill:#ed1c24;}.cls-4{fill:#8c6239;}.cls-5{fill:#fff;}</style></defs><rect class="cls-1" x="-1.34" width="1920.34" height="422"/><rect class="cls-2" y="421" width="1920" height="121"/><path class="cls-3" d="M291.81,240.47A37.5,37.5,0,1,1,221,257.69c0-31.69,32-36.92,41-53.69,7-13,16.87-43.62-18-88,33,42-1,85-31.89,90.23a83.06,83.06,0,1,0,79.7,34.24Z"/><path class="cls-4" d="M294.42,366.35a5.5,5.5,0,0,0-7.28-8.2l-.05,0a93.65,93.65,0,0,1-62.27,24.27h-.76A94,94,0,0,1,213,195l0,0v0a5.5,5.5,0,0,0-.5-11,4.74,4.74,0,0,0-.75.06v0a104.53,104.53,0,0,0-22.24,5.07l-2-4.65a7,7,0,1,0-12.89,5.47l2,4.65a105.12,105.12,0,0,0,40.42,198.69v13.63h-37.5a7,7,0,0,0,0,14h89a7,7,0,0,0,0-14H231.05V393.25a104.37,104.37,0,0,0,27.55-5.58l2,4.65a7,7,0,1,0,12.89-5.47l-2-4.65a105.09,105.09,0,0,0,23-15.82Z"/><path class="cls-5" d="M367.38,371v35.78H342V301.36H384a49,49,0,0,1,21.4,4.46,33.44,33.44,0,0,1,14.41,12.67A34.57,34.57,0,0,1,425,337.14q0,15.42-11,24.66T383.61,371Zm0-19.62H384q7.4,0,11.26-3.7t3.88-10.43q0-7.38-4-11.8T384.33,321H367.38Z"/><path class="cls-5" d="M480.38,350.54l-8-.58q-11.52,0-14.78,7.24v49.61h-24.4V328.45H456l.8,10.06Q463,327,474,327a23.77,23.77,0,0,1,6.81.87Z"/><path class="cls-5" d="M524.57,408.26q-18,0-29.19-10.76t-11.15-28v-2a48.15,48.15,0,0,1,4.45-21.22,32.61,32.61,0,0,1,13-14.23q8.55-5,20.28-5,16.51,0,26.07,10.25t9.56,28.57v9.48H509.07a17.56,17.56,0,0,0,5.72,10.36q4.41,3.76,11.44,3.77,11.6,0,18.11-8.11l11.15,13.18a31.18,31.18,0,0,1-12.93,10A43.74,43.74,0,0,1,524.57,408.26Zm-2.76-62.43q-10.71,0-12.74,14.19h24.62v-1.88q.15-5.86-3-9.09T521.81,345.83Z"/><path class="cls-5" d="M606.16,384.79q0-3.1-3.26-5t-12.38-3.91a56.28,56.28,0,0,1-15.07-5.32,25.26,25.26,0,0,1-9.05-8,19.09,19.09,0,0,1-3.11-10.79q0-10.8,8.9-17.78t23.32-7q15.51,0,24.92,7t9.41,18.47H605.36q0-9.4-9.92-9.41a9.82,9.82,0,0,0-6.44,2.13,6.63,6.63,0,0,0-2.61,5.33,6.05,6.05,0,0,0,3.19,5.28c2.12,1.35,5.51,2.47,10.17,3.33A87.84,87.84,0,0,1,612,362.27q17.67,6.08,17.67,21.8,0,10.71-9.53,17.45t-24.66,6.74a42.55,42.55,0,0,1-18-3.63,30,30,0,0,1-12.31-9.84,22.38,22.38,0,0,1-4.42-13.11h22.82q.14,5.43,3.62,7.93a15,15,0,0,0,8.91,2.5q5,0,7.49-2A6.48,6.48,0,0,0,606.16,384.79Z"/><path class="cls-5" d="M671.3,389.43c3.43,0,6.08-.93,8-2.79s2.8-4.46,2.75-7.79H704.9q0,12.9-9.23,21.15t-23.79,8.26q-17.08,0-26.94-10.72t-9.85-29.7v-1a47.68,47.68,0,0,1,4.38-21,31.93,31.93,0,0,1,12.64-14q8.25-4.89,19.55-4.89,15.29,0,24.26,8.47t9,23H682q0-6.09-3-9.34a10.26,10.26,0,0,0-8-3.26q-9.48,0-11.08,12.09a87.33,87.33,0,0,0-.5,10.58q0,11.81,2.82,16.36T671.3,389.43Z"/><path class="cls-5" d="M760.92,350.54l-8-.58q-11.52,0-14.77,7.24v49.61H713.7V328.45h22.88l.8,10.06Q743.53,327,754.55,327a23.75,23.75,0,0,1,6.8.87Z"/><path class="cls-5" d="M766.19,308.24A10.89,10.89,0,0,1,770,299.7a16,16,0,0,1,19.55,0,11.57,11.57,0,0,1,0,17.09,16,16,0,0,1-19.55,0A10.89,10.89,0,0,1,766.19,308.24Zm25.92,98.57H767.63V328.45h24.48Z"/><path class="cls-5" d="M877.51,368.28q0,19.26-8,29.62T847.1,408.26a23.18,23.18,0,0,1-19.27-9.49l-1,8H805V295.57h24.4v39.18A22.34,22.34,0,0,1,847,327q14.63,0,22.6,10.5t8,29.55ZM853,366.72q0-11.27-3-16.08t-9.23-4.81q-8.26,0-11.45,6.29v31.09q3.12,6.21,11.59,6.22,8.63,0,10.94-8.39Q853,376.92,853,366.72Z"/><path class="cls-5" d="M923.93,408.26q-18,0-29.19-10.76t-11.15-28v-2A48.15,48.15,0,0,1,888,346.26,32.61,32.61,0,0,1,901,332q8.55-5,20.28-5,16.51,0,26.07,10.25T957,365.82v9.48H908.43a17.56,17.56,0,0,0,5.72,10.36q4.41,3.76,11.44,3.77,11.6,0,18.11-8.11l11.15,13.18a31.18,31.18,0,0,1-12.93,10A43.74,43.74,0,0,1,923.93,408.26Zm-2.76-62.43q-10.71,0-12.74,14.19h24.62v-1.88q.15-5.86-3-9.09T921.17,345.83Z"/><path class="cls-5" d="M962.28,367.05q0-18.62,8-29.33T992.77,327a22.51,22.51,0,0,1,17.67,8.25V295.57h24.48V406.81h-22l-1.23-8.4q-7.53,9.84-19.12,9.85-14,0-22.16-10.72T962.28,367.05Zm24.4,1.52q0,20.85,12.17,20.86,8.11,0,11.59-6.81V352.78q-3.33-6.94-11.44-6.95-11.31,0-12.24,18.25Z"/><path class="cls-5" d="M1086.84,406.81V301.36h37.88q20.35,0,31,7.46t10.61,21.66a25.08,25.08,0,0,1-3.77,14,21.92,21.92,0,0,1-11.08,8.55,22.24,22.24,0,0,1,12.68,8.11,23.62,23.62,0,0,1,4.41,14.48q0,15.51-9.81,23.29t-29.08,7.93Zm25.42-61.49h13.26q8.32-.07,11.87-3.05t3.55-8.79q0-6.68-3.84-9.62t-12.38-2.94h-12.46Zm0,16.66v25.27h16.66q6.88,0,10.57-3.15t3.7-8.87q0-13.17-13.11-13.25Z"/><path class="cls-5" d="M1225.88,398.33q-7.74,9.93-20.92,9.93-12.9,0-19.52-7.5t-6.63-21.55V328.45h24.41v50.91q0,10.06,9.77,10.07,8.4,0,12-6v-55h24.55v78.36h-22.88Z"/><path class="cls-5" d="M1308.73,350.54l-8-.58q-11.52,0-14.77,7.24v49.61h-24.41V328.45h22.88l.8,10.06q6.15-11.5,17.17-11.51a23.75,23.75,0,0,1,6.8.87Z"/><path class="cls-5" d="M1337.57,328.45l.8,9.19q8.1-10.63,22.37-10.64,12.24,0,18.29,7.31t6.26,22v50.48h-24.47V357.34q0-5.93-2.39-8.72c-1.6-1.86-4.49-2.79-8.69-2.79q-7.17,0-10.65,5.65v55.33h-24.41V328.45Z"/><path class="cls-5" d="M1496.75,387.11h-34.83l-6.09,19.7h-27.15l38.67-105.45h23.9l39,105.45h-27.3ZM1468,367.48h22.67l-11.37-36.57Z"/><path class="cls-5" d="M1560.18,309v19.48h12.89v16.94h-12.89v35.85q0,4.42,1.59,6.16t6.3,1.74a35.68,35.68,0,0,0,6.08-.44v17.46a45,45,0,0,1-13.76,2.1q-12.6,0-18.61-5.94t-6-18V345.39h-10V328.45h10V309Z"/><path class="cls-5" d="M1607.06,406.81h-24.48V295.57h24.48Z"/><path class="cls-5" d="M1663.93,406.81a27.81,27.81,0,0,1-2.32-7q-6.73,8.48-18.83,8.48a27.85,27.85,0,0,1-18.83-6.7,21.35,21.35,0,0,1-7.75-16.84q0-12.75,9.42-19.26t27.37-6.52h7.54v-4.15q0-10.85-9.35-10.84-8.68,0-8.69,8.58h-24.4q0-11.36,9.67-18.44t24.66-7.09q15,0,23.68,7.31t8.9,20.06v34.69q.15,10.8,3.34,16.52v1.23Zm-15.28-15.93a13.67,13.67,0,0,0,7.57-2,12.29,12.29,0,0,0,4.31-4.42V372h-7.1q-12.75,0-12.75,11.45a7,7,0,0,0,2.25,5.39A8.09,8.09,0,0,0,1648.65,390.88Z"/><path class="cls-5" d="M1737.09,384.79q0-3.1-3.26-5t-12.38-3.91a56.28,56.28,0,0,1-15.07-5.32,25.26,25.26,0,0,1-9.05-8,19.09,19.09,0,0,1-3.11-10.79q0-10.8,8.91-17.78t23.31-7q15.51,0,24.92,7t9.41,18.47h-24.48q0-9.4-9.92-9.41a9.84,9.84,0,0,0-6.44,2.13,6.63,6.63,0,0,0-2.61,5.33,6.05,6.05,0,0,0,3.19,5.28c2.12,1.35,5.51,2.47,10.17,3.33a87.84,87.84,0,0,1,12.28,3.12q17.67,6.08,17.67,21.8,0,10.71-9.53,17.45t-24.66,6.74a42.55,42.55,0,0,1-18-3.63,30,30,0,0,1-12.31-9.84,22.38,22.38,0,0,1-4.42-13.11h22.82q.14,5.43,3.62,7.93a15,15,0,0,0,8.91,2.5q5,0,7.49-2A6.48,6.48,0,0,0,1737.09,384.79Z"/></svg>